<?xml version="1.0" encoding="UTF-8" standalone="no"?>
<!-- Created with Inkscape (http://www.inkscape.org/) -->

<svg
   xmlns:dc="http://purl.org/dc/elements/1.1/"
   xmlns:cc="http://creativecommons.org/ns#"
   xmlns:rdf="http://www.w3.org/1999/02/22-rdf-syntax-ns#"
   xmlns:svg="http://www.w3.org/2000/svg"
   xmlns="http://www.w3.org/2000/svg"
   xmlns:xlink="http://www.w3.org/1999/xlink"
   xmlns:sodipodi="http://sodipodi.sourceforge.net/DTD/sodipodi-0.dtd"
   xmlns:inkscape="http://www.inkscape.org/namespaces/inkscape"
   width="170.68761mm"
   height="51.181297mm"
   viewBox="0 0 170.68761 51.181298"
   version="1.1"
   id="svg838"
   inkscape:version="0.92.2 2405546, 2018-03-11"
   sodipodi:docname="gate-model_vs_quantum_annealing.svg">
  <defs
     id="defs832">
    <marker
       inkscape:stockid="Arrow2Mend"
       orient="auto"
       refY="0"
       refX="0"
       id="Arrow2Mend"
       style="overflow:visible"
       inkscape:isstock="true">
      <path
         id="path1550"
         style="fill:#000000;fill-opacity:1;fill-rule:evenodd;stroke:#000000;stroke-width:0.625;stroke-linejoin:round;stroke-opacity:1"
         d="M 8.7185878,4.0337352 -2.2072895,0.01601326 8.7185884,-4.0017078 c -1.7454984,2.3720609 -1.7354408,5.6174519 -6e-7,8.035443 z"
         transform="scale(-0.6)"
         inkscape:connector-curvature="0" />
    </marker>
    <marker
       inkscape:stockid="Arrow1Lstart"
       orient="auto"
       refY="0"
       refX="0"
       id="Arrow1Lstart"
       style="overflow:visible"
       inkscape:isstock="true">
      <path
         id="path1523"
         d="M 0,0 5,-5 -12.5,0 5,5 Z"
         style="fill:#000000;fill-opacity:1;fill-rule:evenodd;stroke:#000000;stroke-width:1.00000003pt;stroke-opacity:1"
         transform="matrix(0.8,0,0,0.8,10,0)"
         inkscape:connector-curvature="0" />
    </marker>
    <path
       style="stroke-linecap:butt;stroke-linejoin:round"
       inkscape:connector-curvature="0"
       id="DejaVuSans-Oblique-72"
       d="M 16.890625,72.90625 H 26.8125 L 21,43.015625 h 35.78125 l 5.8125,29.890625 h 9.921875 L 58.296875,0 h -9.90625 l 6.78125,34.71875 H 19.390625 L 12.59375,0 H 2.6875 Z" />
    <clipPath
       id="clip1">
      <path
         inkscape:connector-curvature="0"
         d="M 0,0 H 431.10547 V 392.73047 H 0 Z m 0,0"
         id="path6406" />
    </clipPath>
    <clipPath
       id="clip2-3">
      <path
         inkscape:connector-curvature="0"
         id="path22-6"
         d="m 580.02734,303.34766 h 7 v 7 h -7 z m 0,0" />
    </clipPath>
    <marker
       style="overflow:visible"
       id="Arrow2Lend"
       refX="0"
       refY="0"
       orient="auto">
      <path
         inkscape:connector-curvature="0"
         transform="matrix(-1.1,0,0,-1.1,-1.1,0)"
         d="M 8.7185878,4.0337352 -2.2072895,0.01601326 8.7185884,-4.0017078 c -1.7454984,2.3720609 -1.7354408,5.6174519 -6e-7,8.035443 z"
         style="fill:#000000;fill-opacity:1;fill-rule:evenodd;stroke:#000000;stroke-width:0.625;stroke-linejoin:round;stroke-opacity:1"
         id="path966" />
    </marker>
    <marker
       inkscape:stockid="Arrow1Lstart"
       orient="auto"
       refY="0"
       refX="0"
       id="Arrow1Lstart-3"
       style="overflow:visible"
       inkscape:isstock="true">
      <path
         inkscape:connector-curvature="0"
         id="path1523-6"
         d="M 0,0 5,-5 -12.5,0 5,5 Z"
         style="fill:#000000;fill-opacity:1;fill-rule:evenodd;stroke:#000000;stroke-width:1.00000003pt;stroke-opacity:1"
         transform="matrix(0.8,0,0,0.8,10,0)" />
    </marker>
    <marker
       inkscape:stockid="Arrow2Mend"
       orient="auto"
       refY="0"
       refX="0"
       id="Arrow2Mend-7"
       style="overflow:visible"
       inkscape:isstock="true">
      <path
         inkscape:connector-curvature="0"
         id="path1550-5"
         style="fill:#000000;fill-opacity:1;fill-rule:evenodd;stroke:#000000;stroke-width:0.625;stroke-linejoin:round;stroke-opacity:1"
         d="M 8.7185878,4.0337352 -2.2072895,0.01601326 8.7185884,-4.0017078 c -1.7454984,2.3720609 -1.7354408,5.6174519 -6e-7,8.035443 z"
         transform="scale(-0.6)" />
    </marker>
    <marker
       inkscape:stockid="Arrow1Lstart"
       orient="auto"
       refY="0"
       refX="0"
       id="Arrow1Lstart-5"
       style="overflow:visible"
       inkscape:isstock="true">
      <path
         inkscape:connector-curvature="0"
         id="path1523-62"
         d="M 0,0 5,-5 -12.5,0 5,5 Z"
         style="fill:#000000;fill-opacity:1;fill-rule:evenodd;stroke:#000000;stroke-width:1.00000003pt;stroke-opacity:1"
         transform="matrix(0.8,0,0,0.8,10,0)" />
    </marker>
    <marker
       inkscape:stockid="Arrow2Mend"
       orient="auto"
       refY="0"
       refX="0"
       id="Arrow2Mend-9"
       style="overflow:visible"
       inkscape:isstock="true">
      <path
         inkscape:connector-curvature="0"
         id="path1550-1"
         style="fill:#000000;fill-opacity:1;fill-rule:evenodd;stroke:#000000;stroke-width:0.625;stroke-linejoin:round;stroke-opacity:1"
         d="M 8.7185878,4.0337352 -2.2072895,0.01601326 8.7185884,-4.0017078 c -1.7454984,2.3720609 -1.7354408,5.6174519 -6e-7,8.035443 z"
         transform="scale(-0.6)" />
    </marker>
  </defs>
  <sodipodi:namedview
     id="base"
     pagecolor="#ffffff"
     bordercolor="#666666"
     borderopacity="1.0"
     inkscape:pageopacity="0.0"
     inkscape:pageshadow="2"
     inkscape:zoom="1.4"
     inkscape:cx="-62.116556"
     inkscape:cy="201.51431"
     inkscape:document-units="mm"
     inkscape:current-layer="flowRoot4202"
     showgrid="false"
     fit-margin-top="0"
     fit-margin-left="0"
     fit-margin-right="0"
     fit-margin-bottom="0"
     inkscape:window-width="3440"
     inkscape:window-height="1440"
     inkscape:window-x="-1"
     inkscape:window-y="-2"
     inkscape:window-maximized="1" />
  <metadata
     id="metadata835">
    <rdf:RDF>
      <cc:Work
         rdf:about="">
        <dc:format>image/svg+xml</dc:format>
        <dc:type
           rdf:resource="http://purl.org/dc/dcmitype/StillImage" />
        <dc:title></dc:title>
      </cc:Work>
    </rdf:RDF>
  </metadata>
  <g
     inkscape:label="Layer 1"
     inkscape:groupmode="layer"
     id="layer1"
     transform="translate(-12.057441,-87.698021)">
    <g
       style="stroke-linecap:butt;stroke-linejoin:round"
       id="axes_1"
       transform="matrix(0.35277777,0,0,0.35277777,12.586608,94.485623)">
      <g
         style="stroke-linecap:butt;stroke-linejoin:round"
         id="patch_2">
        <path
           inkscape:connector-curvature="0"
           id="path9"
           style="stroke:#000000;stroke-linecap:butt;stroke-linejoin:miter"
           d="m 100.98,47.178 c 0.72082,0 1.41222,-0.286386 1.92192,-0.796084 0.50969,-0.509698 0.79608,-1.201094 0.79608,-1.921916 0,-0.720822 -0.28639,-1.412218 -0.79608,-1.921916 -0.5097,-0.509698 -1.2011,-0.796084 -1.92192,-0.796084 -0.72082,0 -1.412218,0.286386 -1.921916,0.796084 C 98.548386,43.047782 98.262,43.739178 98.262,44.46 c 0,0.720822 0.286386,1.412218 0.796084,1.921916 C 99.567782,46.891614 100.25918,47.178 100.98,47.178 Z" />
      </g>
      <g
         style="stroke-linecap:butt;stroke-linejoin:round"
         id="patch_3">
        <path
           inkscape:connector-curvature="0"
           id="path12"
           style="fill:none;stroke:#000000;stroke-linecap:butt;stroke-linejoin:miter"
           d="m 100.98,106.974 c 2.16247,0 4.23665,-0.85916 5.76575,-2.38825 1.52909,-1.5291 2.38825,-3.60328 2.38825,-5.76575 0,-2.162466 -0.85916,-4.236654 -2.38825,-5.765749 C 105.21665,91.525157 103.14247,90.666 100.98,90.666 c -2.162466,0 -4.236654,0.859157 -5.765749,2.388251 C 93.685157,94.583346 92.826,96.657534 92.826,98.82 c 0,2.16247 0.859157,4.23665 2.388251,5.76575 1.529095,1.52909 3.603283,2.38825 5.765749,2.38825 z" />
      </g>
      <g
         style="stroke-linecap:butt;stroke-linejoin:round"
         id="line2d_1">
        <path
           inkscape:connector-curvature="0"
           id="path15"
           style="fill:none;stroke:#000000;stroke-linecap:square;stroke-linejoin:round"
           d="M -1,98.82 H 145" />
      </g>
      <g
         style="stroke-linecap:butt;stroke-linejoin:round"
         id="line2d_2">
        <path
           inkscape:connector-curvature="0"
           id="path18"
           style="fill:none;stroke:#000000;stroke-linecap:square;stroke-linejoin:round"
           d="M -1,44.46 H 145" />
      </g>
      <g
         style="stroke-linecap:butt;stroke-linejoin:round"
         id="line2d_3">
        <path
           inkscape:connector-curvature="0"
           id="path21"
           style="fill:none;stroke:#000000;stroke-linecap:square;stroke-linejoin:round"
           d="M 100.98,98.82 V 44.46" />
      </g>
      <g
         style="stroke-linecap:butt;stroke-linejoin:round"
         id="line2d_4">
        <path
           inkscape:connector-curvature="0"
           id="path24"
           style="fill:none;stroke:#000000;stroke-linecap:square;stroke-linejoin:round"
           d="M 100.98,106.974 V 90.666" />
      </g>
      <g
         style="stroke-linecap:butt;stroke-linejoin:round"
         id="text_1">
        <g
           style="stroke-linecap:butt;stroke-linejoin:round"
           id="patch_4">
          <path
             inkscape:connector-curvature="0"
             id="path27"
             style="fill:#ffffff;stroke:#000000;stroke-linecap:butt;stroke-linejoin:miter"
             d="m 35.02,58.138125 h 23.2 v -27.35625 h -23.2 z" />
        </g>
        <!-- $H$ -->
        <defs
           id="defs31">
          <path
             style="stroke-linecap:butt;stroke-linejoin:round"
             inkscape:connector-curvature="0"
             id="path1450"
             d="M 16.890625,72.90625 H 26.8125 L 21,43.015625 h 35.78125 l 5.8125,29.890625 h 9.921875 L 58.296875,0 h -9.90625 l 6.78125,34.71875 H 19.390625 L 12.59375,0 H 2.6875 Z" />
        </defs>
        <g
           style="stroke-linecap:butt;stroke-linejoin:round"
           id="g35"
           transform="matrix(0.2,0,0,-0.2,39.02,49.97875)">
          <use
             height="100%"
             width="100%"
             y="0"
             x="0"
             style="stroke-linecap:butt;stroke-linejoin:round"
             id="use33"
             xlink:href="#DejaVuSans-Oblique-72"
             transform="translate(0,0.09375)" />
        </g>
      </g>
    </g>
    <g
       id="g6563"
       clip-path="url(#clip1)"
       style="clip-rule:nonzero;fill:#681cf2;fill-opacity:1;stroke:none;stroke-opacity:1"
       transform="matrix(0.09219834,0,0,0.09219834,130.68552,101.91048)">
      <path
         id="path6561"
         d="M 0.0351562,1.824219 C 0.0390625,1.84375 15.117188,69.988281 35.464844,138.17187 c 10.175781,34.09766 21.660156,68.19922 33.269531,93.85938 5.808594,12.83203 11.640625,23.55078 17.425781,31.15625 2.894532,3.80078 5.777344,6.83203 8.699219,8.95312 2.914063,2.11719 5.910155,3.34375 8.953125,3.34766 2.94141,0.004 5.75391,-0.92969 8.36328,-2.58203 4.89844,-3.11719 9.19531,-8.69531 13.25391,-16.03516 7.08593,-12.84375 13.40234,-31.1914 19.63281,-51.54297 9.33984,-30.51171 18.46875,-65.53125 29.32031,-92.8164 5.41797,-13.640626 11.27735,-25.339845 17.71094,-33.519532 3.21484,-4.09375 6.56641,-7.300782 10.03906,-9.460938 3.47266,-2.160156 7.05078,-3.292969 10.84766,-3.296875 2.94531,0.0039 5.88672,1.117187 8.91406,3.371094 5.67188,4.210937 11.41016,12.453125 16.96094,23.636719 9.73047,19.562502 18.99219,48.050782 27.91406,79.710932 13.38672,47.50391 26.04297,102.17188 38.71094,145.02344 6.33984,21.42969 12.67187,39.90235 19.15234,53.11719 3.25,6.61328 6.52344,11.91797 9.94141,15.65234 1.71094,1.8711 3.46094,3.34766 5.29297,4.38282 1.82812,1.02734 3.7539,1.60546 5.71875,1.60156 1.64453,0.004 3.25781,-0.46485 4.78515,-1.30078 2.96485,-1.62891 5.67969,-4.57813 8.33985,-8.625 4.97265,-7.59375 9.74218,-19.15235 14.39062,-33.66016 8.11719,-25.375 15.78516,-59.74609 22.73828,-97.06641 20.85547,-111.94921 35.25782,-250.402339 35.25782,-250.42187 0.0859,-0.824219 -0.51172,-1.5625 -1.33594,-1.6484375 -0.82422,-0.0859375 -1.5625,0.5117185 -1.64844,1.3398435 0,0.00391 -0.15625,1.519532 -0.46484,4.371094 -2.30469,21.390625 -13,117.71094 -28.20703,208.64453 -7.60157,45.46094 -16.33594,89.58594 -25.69532,122.26563 -4.67187,16.33593 -9.51172,29.8164 -14.38281,39.10546 -2.42969,4.64063 -4.875,8.22657 -7.23047,10.57813 -1.17578,1.17578 -2.32422,2.04297 -3.41797,2.59766 -1.09375,0.55859 -2.11718,0.82031 -3.1289,0.82031 -1.1211,0 -2.25,-0.25781 -3.42578,-0.80078 -2.27735,-1.03907 -4.71875,-3.1836 -7.1875,-6.36719 -4.63672,-5.96484 -9.34375,-15.48828 -14.01172,-27.51563 -8.17578,-21.05468 -16.29297,-49.78515 -24.50391,-81.0039 C 284.13281,227.20703 271.57812,174.77344 258.10156,133.96875 251.35937,113.5625 244.39453,96.066406 237.04687,83.5625 233.36719,77.308594 229.59375,72.292969 225.625,68.777344 c -3.96094,-3.503906 -8.19141,-5.542969 -12.64453,-5.542969 -3.58203,0 -7.00781,0.886719 -10.23438,2.511719 -6.05468,3.054687 -11.41406,8.644531 -16.34375,15.996094 -8.61718,12.871093 -15.95703,31.246092 -22.73828,51.617182 -10.15625,30.54688 -19.01562,65.58985 -28.53906,92.91407 -4.75391,13.65625 -9.6875,25.38281 -14.94922,33.57422 -2.625,4.09765 -5.32812,7.30468 -8.0664,9.43359 -2.74219,2.13672 -5.46094,3.20312 -8.29688,3.20703 -2.21094,0 -4.605469,-0.89844 -7.191406,-2.77344 C 91.773438,266.21094 86.484375,259.33203 81.148438,250.00781 71.792969,233.69141 62.1875,209.92969 53.089844,183.51953 39.4375,143.90234 26.902344,98.304688 17.785156,62.621094 13.222656,44.78125 9.519531,29.414062 6.953125,18.511719 5.671875,13.0625 4.671875,8.726562 3.996094,5.753906 3.65625,4.269531 3.398438,3.125 3.226562,2.351562 3.054688,1.578125 2.964844,1.179688 2.964844,1.175781 2.785156,0.367188 1.984375,-0.140625 1.175781,0.0351562 0.367188,0.214844 -0.144531,1.015625 0.0351562,1.824219"
         style="fill:#681cf2;fill-opacity:1;fill-rule:nonzero;stroke:none;stroke-opacity:1"
         inkscape:connector-curvature="0" />
    </g>
    <g
       clip-path="url(#clip2-3)"
       id="g44"
       style="clip-rule:nonzero;fill:#23e048;fill-opacity:1"
       transform="matrix(0.17942026,0,0,0.17942026,35.097123,67.747765)">
      <path
         inkscape:connector-curvature="0"
         style="fill:#23e048;fill-opacity:1;fill-rule:nonzero;stroke:none"
         d="m 583.52734,310.34766 c 0.92578,0 1.81641,-0.36719 2.47266,-1.02344 0.65625,-0.65625 1.02734,-1.54688 1.02734,-2.47656 0,-0.92579 -0.37109,-1.81641 -1.02734,-2.47266 -0.65625,-0.65625 -1.54688,-1.02734 -2.47266,-1.02734 -0.92968,0 -1.82031,0.37109 -2.47656,1.02734 -0.65625,0.65625 -1.02344,1.54687 -1.02344,2.47266 0,0.92968 0.36719,1.82031 1.02344,2.47656 0.65625,0.65625 1.54688,1.02344 2.47656,1.02344 z m 0,0"
         id="path42" />
    </g>
    <path
       inkscape:connector-curvature="0"
       id="path943"
       d="M 125.9362,138.87932 V 101.89391"
       style="fill:none;fill-rule:evenodd;stroke:#000000;stroke-width:0.13456519px;stroke-linecap:butt;stroke-linejoin:miter;stroke-opacity:1;marker-end:url(#Arrow2Lend)"
       sodipodi:nodetypes="cc" />
    <g
       id="flowRoot1253"
       style="font-style:normal;font-weight:normal;font-size:40px;line-height:25px;font-family:sans-serif;letter-spacing:0px;word-spacing:0px;fill:#000000;fill-opacity:1;stroke:none;stroke-width:1px;stroke-linecap:butt;stroke-linejoin:miter;stroke-opacity:1"
       transform="matrix(0.1345652,0,0,0.1345652,43.496939,64.412407)"
       aria-label="Energy">
      <path
         inkscape:connector-curvature="0"
         id="path1261"
         style="font-size:13.33333302px"
         d="m 559.56445,276.58659 h 6.14584 v 1.10677 h -4.83073 v 2.8776 h 4.6289 v 1.10677 h -4.6289 v 3.52214 h 4.94791 v 1.10677 h -6.26302 z" />
      <path
         inkscape:connector-curvature="0"
         id="path1263"
         style="font-size:13.33333302px"
         d="m 574.01107,281.9056 v 4.40104 h -1.19792 v -4.36198 q 0,-1.03515 -0.40364,-1.54948 -0.40365,-0.51432 -1.21094,-0.51432 -0.97005,0 -1.52995,0.61849 -0.5599,0.61849 -0.5599,1.6862 v 4.12109 h -1.20442 v -7.29167 h 1.20442 v 1.13282 q 0.42969,-0.65756 1.00912,-0.98308 0.58594,-0.32552 1.34765,-0.32552 1.25652,0 1.90105,0.78125 0.64453,0.77474 0.64453,2.28516 z" />
      <path
         inkscape:connector-curvature="0"
         id="path1265"
         style="font-size:13.33333302px"
         d="m 582.65039,282.36133 v 0.58594 h -5.50781 q 0.0781,1.23697 0.74218,1.88802 0.67058,0.64453 1.86198,0.64453 0.69011,0 1.33464,-0.16927 0.65104,-0.16927 1.28906,-0.50782 v 1.13282 q -0.64453,0.27343 -1.32161,0.41666 -0.67709,0.14323 -1.3737,0.14323 -1.74479,0 -2.76693,-1.01562 -1.01562,-1.01563 -1.01562,-2.7474 0,-1.79036 0.96354,-2.83854 0.97005,-1.05469 2.61068,-1.05469 1.47135,0 2.32421,0.95052 0.85938,0.94401 0.85938,2.57162 z m -1.19792,-0.35156 q -0.013,-0.98308 -0.55338,-1.56901 -0.53386,-0.58594 -1.41927,-0.58594 -1.00261,0 -1.60808,0.5664 -0.59895,0.56641 -0.6901,1.59506 z" />
      <path
         inkscape:connector-curvature="0"
         id="path1267"
         style="font-size:13.33333302px"
         d="m 588.8418,280.13477 q -0.20183,-0.11719 -0.44271,-0.16928 -0.23438,-0.0586 -0.52084,-0.0586 -1.01562,0 -1.5625,0.66406 -0.54036,0.65756 -0.54036,1.89453 v 3.84115 h -1.20443 v -7.29167 h 1.20443 v 1.13282 q 0.3776,-0.66407 0.98307,-0.98308 0.60547,-0.32552 1.47136,-0.32552 0.12369,0 0.27343,0.0195 0.14974,0.013 0.33204,0.0456 z" />
      <path
         inkscape:connector-curvature="0"
         id="path1269"
         style="font-size:13.33333302px"
         d="m 594.67513,282.57617 q 0,-1.30208 -0.54037,-2.01823 -0.53385,-0.71614 -1.5039,-0.71614 -0.96354,0 -1.50391,0.71614 -0.53385,0.71615 -0.53385,2.01823 0,1.29557 0.53385,2.01172 0.54037,0.71615 1.50391,0.71615 0.97005,0 1.5039,-0.71615 0.54037,-0.71615 0.54037,-2.01172 z m 1.19792,2.82552 q 0,1.86198 -0.82683,2.76693 -0.82682,0.91146 -2.53255,0.91146 -0.63151,0 -1.19141,-0.0977 -0.55989,-0.0911 -1.08724,-0.28646 v -1.16536 q 0.52735,0.28646 1.04167,0.42318 0.51432,0.13671 1.04818,0.13671 1.17838,0 1.76432,-0.61848 0.58594,-0.61198 0.58594,-1.85547 v -0.59245 q -0.37109,0.64453 -0.95052,0.96354 -0.57943,0.31901 -1.38672,0.31901 -1.34115,0 -2.16146,-1.02213 -0.82031,-1.02214 -0.82031,-2.70834 0,-1.69271 0.82031,-2.71484 0.82031,-1.02214 2.16146,-1.02214 0.80729,0 1.38672,0.31901 0.57943,0.31901 0.95052,0.96354 v -1.10677 h 1.19792 z" />
      <path
         inkscape:connector-curvature="0"
         id="path1271"
         style="font-size:13.33333302px"
         d="m 601.37435,286.98372 q -0.50781,1.30209 -0.98958,1.69922 -0.48178,0.39714 -1.28907,0.39714 h -0.95703 v -1.00261 h 0.70313 q 0.49479,0 0.76823,-0.23437 0.27343,-0.23438 0.60546,-1.10677 l 0.21485,-0.54688 -2.94922,-7.17448 h 1.26953 l 2.27865,5.70313 2.27864,-5.70313 h 1.26953 z" />
    </g>
    <path
       style="fill:none;fill-rule:evenodd;stroke:#000000;stroke-width:0.26499999;stroke-linecap:butt;stroke-linejoin:miter;stroke-miterlimit:4;stroke-dasharray:none;stroke-opacity:1;marker-mid:url(#Arrow1Lstart);marker-end:url(#Arrow2Mend)"
       d="M 141.59006,122.46949 H 161.5283"
       id="path1521"
       inkscape:connector-curvature="0"
       sodipodi:nodetypes="cc" />
    <path
       style="fill:none;fill-rule:evenodd;stroke:#000000;stroke-width:0.26499999;stroke-linecap:butt;stroke-linejoin:miter;stroke-miterlimit:4;stroke-dasharray:none;stroke-opacity:1;marker-end:url(#Arrow2Mend-7)"
       d="m 140.49206,119.73171 c 0,0 2.38047,-10.87201 6.1899,-14.48614 0.97622,-0.92617 2.44492,-1.37915 3.79054,-1.38886 1.4097,-0.0102 2.80423,0.63766 3.99163,1.39756 1.22607,0.78465 3.03685,3.13815 3.03685,3.13815"
       id="path1521-3"
       inkscape:connector-curvature="0"
       sodipodi:nodetypes="caaac" />
    <g
       aria-label="Gate Model"
       transform="matrix(0.26458333,0,0,0.26458333,16.441964,25.409145)"
       style="font-style:normal;font-weight:normal;font-size:40px;line-height:25px;font-family:sans-serif;letter-spacing:0px;word-spacing:0px;fill:#000000;fill-opacity:1;stroke:none;stroke-width:1px;stroke-linecap:butt;stroke-linejoin:miter;stroke-opacity:1"
       id="flowRoot4202">
      <path
         d="m 39.444662,255.49414 v -5.22135 h -4.296875 v -2.16146 h 6.901042 v 8.34635 q -1.523438,1.08073 -3.359375,1.64063 -1.835938,0.54687 -3.919271,0.54687 -4.557292,0 -7.135417,-2.65625 -2.565104,-2.66927 -2.565104,-7.42187 0,-4.76563 2.565104,-7.42188 2.578125,-2.66927 7.135417,-2.66927 1.901042,0 3.606771,0.46875 1.71875,0.46875 3.164062,1.38021 v 2.79948 q -1.458333,-1.23698 -3.098958,-1.86198 -1.640625,-0.625 -3.450521,-0.625 -3.567709,0 -5.364584,1.99219 -1.783854,1.99218 -1.783854,5.9375 0,3.93229 1.783854,5.92448 1.796875,1.99218 5.364584,1.99218 1.393229,0 2.486979,-0.23437 1.09375,-0.2474 1.966146,-0.75521 z"
         style="font-size:26.66666794px"
         id="path4371"
         inkscape:connector-curvature="0" />
      <path
         d="m 53.389975,250.93685 q -2.903646,0 -4.023438,0.66406 -1.119791,0.66406 -1.119791,2.26563 0,1.27604 0.833333,2.03125 0.846354,0.74218 2.291667,0.74218 1.992187,0 3.190104,-1.40625 1.210938,-1.41927 1.210938,-3.76302 v -0.53385 z m 4.778646,-0.98958 v 8.32031 h -2.395833 v -2.21354 q -0.820313,1.32812 -2.044271,1.96614 -1.223959,0.625 -2.994792,0.625 -2.239584,0 -3.567709,-1.25 -1.315104,-1.26302 -1.315104,-3.37239 0,-2.46094 1.640625,-3.71094 1.653646,-1.25 4.921875,-1.25 h 3.359376 v -0.23438 q 0,-1.65364 -1.09375,-2.55208 -1.08073,-0.91146 -3.046876,-0.91146 -1.25,0 -2.434896,0.29948 -1.184895,0.29948 -2.278645,0.89844 v -2.21354 q 1.315104,-0.50782 2.552083,-0.75521 1.236979,-0.26042 2.408854,-0.26042 3.164063,0 4.726563,1.64063 1.5625,1.64062 1.5625,4.97396 z"
         style="font-size:26.66666794px"
         id="path4373"
         inkscape:connector-curvature="0" />
      <path
         d="m 65.486328,239.54362 v 4.14062 h 4.934896 v 1.86198 h -4.934896 v 7.91667 q 0,1.78385 0.481771,2.29167 0.494792,0.50781 1.992188,0.50781 h 2.460937 v 2.00521 h -2.460937 q -2.773438,0 -3.828125,-1.02865 -1.054688,-1.04166 -1.054688,-3.77604 v -7.91667 h -1.757813 v -1.86198 h 1.757813 v -4.14062 z"
         style="font-size:26.66666794px"
         id="path4375"
         inkscape:connector-curvature="0" />
      <path
         d="m 86.059249,250.37695 v 1.17188 H 75.043624 q 0.15625,2.47396 1.484375,3.77604 1.341146,1.28906 3.723958,1.28906 1.380209,0 2.669271,-0.33854 1.302084,-0.33854 2.578125,-1.01562 v 2.26562 q -1.289062,0.54688 -2.643229,0.83333 -1.354167,0.28646 -2.747396,0.28646 -3.489583,0 -5.533854,-2.03125 -2.03125,-2.03125 -2.03125,-5.49479 0,-3.58073 1.927083,-5.67708 1.940104,-2.10938 5.221355,-2.10938 2.942708,0 4.648437,1.90104 1.71875,1.88802 1.71875,5.14323 z m -2.395833,-0.70312 q -0.02604,-1.96615 -1.106771,-3.13802 -1.067708,-1.17188 -2.838542,-1.17188 -2.005208,0 -3.216146,1.13281 -1.197917,1.13282 -1.380208,3.19011 z"
         style="font-size:26.66666794px"
         id="path4377"
         inkscape:connector-curvature="0" />
      <path
         d="m 98.585289,238.82747 h 3.919271 l 4.96094,13.22917 4.98698,-13.22917 h 3.91927 v 19.44011 h -2.56511 v -17.07032 l -5.01302,13.33334 h -2.64323 l -5.01302,-13.33334 v 17.07032 h -2.552081 z"
         style="font-size:26.66666794px"
         id="path4379"
         inkscape:connector-curvature="0" />
      <path
         d="m 127.153,245.36393 q -1.92708,0 -3.04687,1.51042 -1.1198,1.49739 -1.1198,4.11458 0,2.61719 1.10677,4.12761 1.1198,1.49739 3.0599,1.49739 1.91406,0 3.03385,-1.51041 1.1198,-1.51042 1.1198,-4.11459 0,-2.59114 -1.1198,-4.10156 -1.11979,-1.52344 -3.03385,-1.52344 z m 0,-2.03125 q 3.125,0 4.90885,2.03125 1.78386,2.03125 1.78386,5.625 0,3.58073 -1.78386,5.625 -1.78385,2.03125 -4.90885,2.03125 -3.13802,0 -4.92187,-2.03125 -1.77084,-2.04427 -1.77084,-5.625 0,-3.59375 1.77084,-5.625 1.78385,-2.03125 4.92187,-2.03125 z"
         style="font-size:26.66666794px"
         id="path4381"
         inkscape:connector-curvature="0" />
      <path
         d="m 147.4004,245.89779 v -7.89063 h 2.39583 v 20.26042 h -2.39583 v -2.1875 q -0.75521,1.30208 -1.91406,1.9401 -1.14584,0.625 -2.76042,0.625 -2.64323,0 -4.3099,-2.10937 -1.65364,-2.10938 -1.65364,-5.54688 0,-3.4375 1.65364,-5.54687 1.66667,-2.10938 4.3099,-2.10938 1.61458,0 2.76042,0.63802 1.15885,0.625 1.91406,1.92709 z m -8.16406,5.09114 q 0,2.64323 1.08073,4.15365 1.09375,1.49739 2.99479,1.49739 1.90104,0 2.99479,-1.49739 1.09375,-1.51042 1.09375,-4.15365 0,-2.64323 -1.09375,-4.14062 -1.09375,-1.51042 -2.99479,-1.51042 -1.90104,0 -2.99479,1.51042 -1.08073,1.49739 -1.08073,4.14062 z"
         style="font-size:26.66666794px"
         id="path4383"
         inkscape:connector-curvature="0" />
      <path
         d="m 167.20509,250.37695 v 1.17188 h -11.01563 q 0.15625,2.47396 1.48438,3.77604 1.34114,1.28906 3.72396,1.28906 1.38021,0 2.66927,-0.33854 1.30208,-0.33854 2.57812,-1.01562 v 2.26562 q -1.28906,0.54688 -2.64323,0.83333 -1.35416,0.28646 -2.74739,0.28646 -3.48959,0 -5.53386,-2.03125 -2.03125,-2.03125 -2.03125,-5.49479 0,-3.58073 1.92709,-5.67708 1.9401,-2.10938 5.22135,-2.10938 2.94271,0 4.64844,1.90104 1.71875,1.88802 1.71875,5.14323 z m -2.39583,-0.70312 q -0.026,-1.96615 -1.10678,-3.13802 -1.0677,-1.17188 -2.83854,-1.17188 -2.00521,0 -3.21614,1.13281 -1.19792,1.13282 -1.38021,3.19011 z"
         style="font-size:26.66666794px"
         id="path4385"
         inkscape:connector-curvature="0" />
      <path
         d="m 171.13738,238.00716 h 2.39583 v 20.26042 h -2.39583 z"
         style="font-size:26.66666794px"
         id="path4387"
         inkscape:connector-curvature="0" />
    </g>
    <g
       aria-label="Quantum Annealing"
       transform="matrix(0.26458333,0,0,0.26458333,106.62101,24.725294)"
       style="font-style:normal;font-weight:normal;font-size:40px;line-height:25px;font-family:sans-serif;letter-spacing:0px;word-spacing:0px;fill:#000000;fill-opacity:1;stroke:none;stroke-width:1px;stroke-linecap:butt;stroke-linejoin:miter;stroke-opacity:1"
       id="flowRoot4202-7">
      <path
         d="m 34.080079,240.61133 q -2.864584,0 -4.557292,2.13541 -1.679688,2.13542 -1.679688,5.82032 0,3.67187 1.679688,5.80729 1.692708,2.13542 4.557292,2.13542 2.864583,0 4.53125,-2.13542 1.679687,-2.13542 1.679687,-5.80729 0,-3.6849 -1.679687,-5.82032 -1.666667,-2.13541 -4.53125,-2.13541 z m 3.684896,17.30469 3.463541,3.78906 h -3.177083 l -2.877604,-3.11198 q -0.429688,0.026 -0.664063,0.0391 -0.221354,0.013 -0.429687,0.013 -4.101563,0 -6.562501,-2.73437 -2.447916,-2.7474 -2.447916,-7.34375 0,-4.60938 2.447916,-7.34375 2.460938,-2.7474 6.562501,-2.7474 4.088541,0 6.536458,2.7474 2.447917,2.73437 2.447917,7.34375 0,3.38541 -1.367188,5.79427 -1.354166,2.40885 -3.932291,3.55469 z"
         style="font-size:26.66666794px"
         id="path4390"
         inkscape:connector-curvature="0" />
      <path
         d="m 46.827475,252.51237 v -8.82813 h 2.395833 v 8.73698 q 0,2.07032 0.807292,3.11198 0.807292,1.02865 2.421875,1.02865 1.940104,0 3.059896,-1.23698 1.132813,-1.23698 1.132813,-3.3724 v -8.26823 h 2.395833 v 14.58334 h -2.395833 v -2.23959 q -0.872396,1.32813 -2.031251,1.97917 -1.145833,0.63802 -2.669271,0.63802 -2.513021,0 -3.815104,-1.5625 -1.302083,-1.5625 -1.302083,-4.57031 z m 6.028646,-9.17969 z"
         style="font-size:26.66666794px"
         id="path4392"
         inkscape:connector-curvature="0" />
      <path
         d="m 70.629559,250.93685 q -2.903646,0 -4.023438,0.66406 -1.119791,0.66406 -1.119791,2.26563 0,1.27604 0.833333,2.03125 0.846354,0.74218 2.291667,0.74218 1.992187,0 3.190104,-1.40625 1.210938,-1.41927 1.210938,-3.76302 v -0.53385 z m 4.778646,-0.98958 v 8.32031 h -2.395833 v -2.21354 q -0.820313,1.32812 -2.044271,1.96614 -1.223959,0.625 -2.994792,0.625 -2.239584,0 -3.567709,-1.25 -1.315104,-1.26302 -1.315104,-3.37239 0,-2.46094 1.640625,-3.71094 1.653646,-1.25 4.921875,-1.25 h 3.359376 v -0.23438 q 0,-1.65364 -1.09375,-2.55208 -1.08073,-0.91146 -3.046876,-0.91146 -1.25,0 -2.434896,0.29948 -1.184895,0.29948 -2.278645,0.89844 v -2.21354 q 1.315104,-0.50782 2.552083,-0.75521 1.236979,-0.26042 2.408854,-0.26042 3.164063,0 4.726563,1.64063 1.5625,1.64062 1.5625,4.97396 z"
         style="font-size:26.66666794px"
         id="path4394"
         inkscape:connector-curvature="0" />
      <path
         d="m 92.478519,249.46549 v 8.80209 h -2.395834 v -8.72396 q 0,-2.07031 -0.807291,-3.09896 -0.807292,-1.02864 -2.421875,-1.02864 -1.940105,0 -3.059896,1.23697 -1.119792,1.23698 -1.119792,3.3724 v 8.24219 h -2.408854 v -14.58334 h 2.408854 v 2.26563 q 0.859375,-1.31511 2.018229,-1.96615 1.171875,-0.65104 2.695313,-0.65104 2.513021,0 3.802083,1.5625 1.289063,1.54948 1.289063,4.57031 z"
         style="font-size:26.66666794px"
         id="path4396"
         inkscape:connector-curvature="0" />
      <path
         d="m 99.653,239.54362 v 4.14062 h 4.9349 v 1.86198 H 99.653 v 7.91667 q 0,1.78385 0.48177,2.29167 0.49479,0.50781 1.99219,0.50781 h 2.46094 v 2.00521 h -2.46094 q -2.773439,0 -3.828127,-1.02865 -1.054687,-1.04166 -1.054687,-3.77604 v -7.91667 h -1.757813 v -1.86198 h 1.757813 v -4.14062 z"
         style="font-size:26.66666794px"
         id="path4398"
         inkscape:connector-curvature="0" />
      <path
         d="m 107.50456,252.51237 v -8.82813 h 2.39584 v 8.73698 q 0,2.07032 0.80729,3.11198 0.80729,1.02865 2.42187,1.02865 1.94011,0 3.0599,-1.23698 1.13281,-1.23698 1.13281,-3.3724 v -8.26823 h 2.39583 v 14.58334 h -2.39583 v -2.23959 q -0.87239,1.32813 -2.03125,1.97917 -1.14583,0.63802 -2.66927,0.63802 -2.51302,0 -3.8151,-1.5625 -1.30209,-1.5625 -1.30209,-4.57031 z m 6.02865,-9.17969 z"
         style="font-size:26.66666794px"
         id="path4400"
         inkscape:connector-curvature="0" />
      <path
         d="m 136.03321,246.48372 q 0.89844,-1.61458 2.14844,-2.38281 1.25,-0.76823 2.94271,-0.76823 2.27864,0 3.51562,1.60156 1.23698,1.58855 1.23698,4.53125 v 8.80209 h -2.40885 v -8.72396 q 0,-2.09635 -0.74219,-3.11198 -0.74219,-1.01562 -2.26563,-1.01562 -1.86197,0 -2.9427,1.23697 -1.08073,1.23698 -1.08073,3.3724 v 8.24219 H 134.028 v -8.72396 q 0,-2.10938 -0.74218,-3.11198 -0.74219,-1.01562 -2.29167,-1.01562 -1.83594,0 -2.91667,1.25 -1.08073,1.23697 -1.08073,3.35937 v 8.24219 h -2.40885 v -14.58334 h 2.40885 v 2.26563 q 0.82032,-1.34115 1.96615,-1.97917 1.14583,-0.63802 2.72135,-0.63802 1.58854,0 2.69532,0.80729 1.11979,0.80729 1.65364,2.34375 z"
         style="font-size:26.66666794px"
         id="path4402"
         inkscape:connector-curvature="0" />
      <path
         d="m 165.75977,241.41862 -3.56771,9.67448 h 7.14844 z m -1.48437,-2.59115 h 2.98177 l 7.40885,19.44011 h -2.73437 l -1.77084,-4.98698 h -8.76302 l -1.77083,4.98698 h -2.77344 z"
         style="font-size:26.66666794px"
         id="path4404"
         inkscape:connector-curvature="0" />
      <path
         d="m 189.50978,249.46549 v 8.80209 h -2.39584 v -8.72396 q 0,-2.07031 -0.80729,-3.09896 -0.80729,-1.02864 -2.42187,-1.02864 -1.94011,0 -3.0599,1.23697 -1.11979,1.23698 -1.11979,3.3724 v 8.24219 h -2.40886 v -14.58334 h 2.40886 v 2.26563 q 0.85937,-1.31511 2.01823,-1.96615 1.17187,-0.65104 2.69531,-0.65104 2.51302,0 3.80208,1.5625 1.28907,1.54948 1.28907,4.57031 z"
         style="font-size:26.66666794px"
         id="path4406"
         inkscape:connector-curvature="0" />
      <path
         d="m 206.43685,249.46549 v 8.80209 h -2.39583 v -8.72396 q 0,-2.07031 -0.80729,-3.09896 -0.80729,-1.02864 -2.42188,-1.02864 -1.9401,0 -3.05989,1.23697 -1.11979,1.23698 -1.11979,3.3724 v 8.24219 h -2.40886 v -14.58334 h 2.40886 v 2.26563 q 0.85937,-1.31511 2.01823,-1.96615 1.17187,-0.65104 2.69531,-0.65104 2.51302,0 3.80208,1.5625 1.28906,1.54948 1.28906,4.57031 z"
         style="font-size:26.66666794px"
         id="path4408"
         inkscape:connector-curvature="0" />
      <path
         d="m 223.71551,250.37695 v 1.17188 h -11.01562 q 0.15625,2.47396 1.48437,3.77604 1.34115,1.28906 3.72396,1.28906 1.38021,0 2.66927,-0.33854 1.30208,-0.33854 2.57812,-1.01562 v 2.26562 q -1.28906,0.54688 -2.64322,0.83333 -1.35417,0.28646 -2.7474,0.28646 -3.48958,0 -5.53385,-2.03125 -2.03125,-2.03125 -2.03125,-5.49479 0,-3.58073 1.92708,-5.67708 1.9401,-2.10938 5.22135,-2.10938 2.94271,0 4.64844,1.90104 1.71875,1.88802 1.71875,5.14323 z m -2.39583,-0.70312 q -0.026,-1.96615 -1.10677,-3.13802 -1.06771,-1.17188 -2.83855,-1.17188 -2.0052,0 -3.21614,1.13281 -1.19792,1.13282 -1.38021,3.19011 z"
         style="font-size:26.66666794px"
         id="path4410"
         inkscape:connector-curvature="0" />
      <path
         d="m 234.27541,250.93685 q -2.90365,0 -4.02344,0.66406 -1.11979,0.66406 -1.11979,2.26563 0,1.27604 0.83333,2.03125 0.84635,0.74218 2.29167,0.74218 1.99218,0 3.1901,-1.40625 1.21094,-1.41927 1.21094,-3.76302 v -0.53385 z m 4.77864,-0.98958 v 8.32031 h -2.39583 v -2.21354 q -0.82031,1.32812 -2.04427,1.96614 -1.22396,0.625 -2.99479,0.625 -2.23959,0 -3.56771,-1.25 -1.31511,-1.26302 -1.31511,-3.37239 0,-2.46094 1.64063,-3.71094 1.65364,-1.25 4.92187,-1.25 h 3.35938 v -0.23438 q 0,-1.65364 -1.09375,-2.55208 -1.08073,-0.91146 -3.04688,-0.91146 -1.25,0 -2.43489,0.29948 -1.1849,0.29948 -2.27865,0.89844 v -2.21354 q 1.31511,-0.50782 2.55209,-0.75521 1.23697,-0.26042 2.40885,-0.26042 3.16406,0 4.72656,1.64063 1.5625,1.64062 1.5625,4.97396 z"
         style="font-size:26.66666794px"
         id="path4412"
         inkscape:connector-curvature="0" />
      <path
         d="m 244.00196,238.00716 h 2.39583 v 20.26042 h -2.39583 z"
         style="font-size:26.66666794px"
         id="path4414"
         inkscape:connector-curvature="0" />
      <path
         d="m 251.3978,243.68424 h 2.39584 v 14.58334 h -2.39584 z m 0,-5.67708 h 2.39584 v 3.03385 h -2.39584 z"
         style="font-size:26.66666794px"
         id="path4416"
         inkscape:connector-curvature="0" />
      <path
         d="m 270.91603,249.46549 v 8.80209 h -2.39584 v -8.72396 q 0,-2.07031 -0.80729,-3.09896 -0.80729,-1.02864 -2.42187,-1.02864 -1.94011,0 -3.0599,1.23697 -1.11979,1.23698 -1.11979,3.3724 v 8.24219 h -2.40886 v -14.58334 h 2.40886 v 2.26563 q 0.85937,-1.31511 2.01823,-1.96615 1.17187,-0.65104 2.69531,-0.65104 2.51302,0 3.80208,1.5625 1.28907,1.54948 1.28907,4.57031 z"
         style="font-size:26.66666794px"
         id="path4418"
         inkscape:connector-curvature="0" />
      <path
         d="m 285.31706,250.80664 q 0,-2.60417 -1.08073,-4.03646 -1.0677,-1.43229 -3.00781,-1.43229 -1.92708,0 -3.00781,1.43229 -1.06771,1.43229 -1.06771,4.03646 0,2.59115 1.06771,4.02344 1.08073,1.43229 3.00781,1.43229 1.94011,0 3.00781,-1.43229 1.08073,-1.43229 1.08073,-4.02344 z m 2.39584,5.65104 q 0,3.72396 -1.65365,5.53386 -1.65365,1.82291 -5.0651,1.82291 -1.26302,0 -2.38282,-0.19531 -1.11979,-0.18229 -2.17448,-0.57292 v -2.33073 q 1.05469,0.57292 2.08334,0.84636 1.02864,0.27344 2.09635,0.27344 2.35677,0 3.52865,-1.23698 1.17187,-1.22396 1.17187,-3.71094 v -1.1849 q -0.74218,1.28907 -1.90104,1.92709 -1.15885,0.63802 -2.77344,0.63802 -2.68229,0 -4.32291,-2.04427 -1.64063,-2.04427 -1.64063,-5.41667 0,-3.38542 1.64063,-5.42969 1.64062,-2.04427 4.32291,-2.04427 1.61459,0 2.77344,0.63802 1.15886,0.63802 1.90104,1.92709 v -2.21355 h 2.39584 z"
         style="font-size:26.66666794px"
         id="path4420"
         inkscape:connector-curvature="0" />
    </g>
  </g>
</svg>
